<svg id="图层_1" data-name="图层 1" xmlns="http://www.w3.org/2000/svg" viewBox="0 0 896.45 600"><defs><style>.cls-1{fill:#fff;}.cls-1,.cls-2{stroke:#000;}.cls-1,.cls-2,.cls-5,.cls-8{stroke-miterlimit:10;}.cls-2,.cls-5,.cls-8{fill:none;}.cls-3,.cls-6,.cls-9{font-size:20px;font-family:AdobeSongStd-Light-GBpc-EUC-H, Adobe Song Std;}.cls-4{fill:red;}.cls-5{stroke:blue;}.cls-6{fill:blue;}.cls-7{fill:#000;}.cls-8{stroke:#f15a24;}.cls-9{fill:#f15a24;}</style></defs><title>画板 1</title><circle class="cls-1" cx="239.23" cy="211.21" r="23.39"/><circle class="cls-1" cx="349.72" cy="99.66" r="23.39"/><circle class="cls-1" cx="441.79" cy="211.21" r="23.39"/><circle class="cls-1" cx="120.96" cy="347.79" r="23.39"/><circle class="cls-1" cx="311.29" cy="347.79" r="23.39"/><circle class="cls-1" cx="406.73" cy="347.79" r="23.39"/><circle class="cls-1" cx="554.51" cy="347.79" r="23.39"/><circle class="cls-1" cx="59.09" cy="506.4" r="23.39"/><circle class="cls-1" cx="208.48" cy="506.4" r="23.39"/><circle class="cls-1" cx="349.72" cy="503.84" r="23.39"/><circle class="cls-1" cx="501.87" cy="506.4" r="23.39"/><line class="cls-2" x1="349.72" y1="99.66" x2="239.23" y2="211.21"/><line class="cls-2" x1="349.72" y1="99.66" x2="441.79" y2="211.21"/><line class="cls-2" x1="239.23" y1="211.21" x2="120.96" y2="347.79"/><line class="cls-2" x1="239.23" y1="211.21" x2="311.29" y2="347.79"/><line class="cls-2" x1="120.96" y1="347.79" x2="59.09" y2="506.4"/><line class="cls-2" x1="120.96" y1="347.79" x2="208.48" y2="506.4"/><line class="cls-2" x1="441.79" y1="211.21" x2="406.73" y2="347.79"/><line class="cls-2" x1="441.79" y1="211.21" x2="554.51" y2="347.79"/><line class="cls-2" x1="406.73" y1="347.79" x2="349.72" y2="503.84"/><line class="cls-2" x1="406.73" y1="347.79" x2="501.87" y2="506.4"/><text class="cls-3" transform="translate(383.35 93.89)">1,6<tspan x="0" y="24" xml:space="preserve">  </tspan><tspan class="cls-4" x="8.28" y="24">0</tspan></text><text class="cls-3" transform="translate(270.32 207.04)">1,3<tspan x="0" y="24" xml:space="preserve">  </tspan><tspan class="cls-4" x="8.28" y="24">0</tspan></text><text class="cls-3" transform="translate(476.73 207.04)">4,6<tspan x="0" y="24" xml:space="preserve">  </tspan><tspan class="cls-4" x="8.28" y="24">0</tspan></text><text class="cls-3" transform="translate(585.7 341.66)">6,6<tspan x="0" y="24" xml:space="preserve">  </tspan><tspan class="cls-4" x="8.28" y="24">0</tspan></text><text class="cls-3" transform="translate(441.79 341.66)">4,5<tspan x="0" y="24" xml:space="preserve">  </tspan><tspan class="cls-4" x="8.28" y="24">0</tspan></text><text class="cls-3" transform="translate(341.47 341.66)">3,3<tspan x="0" y="24" xml:space="preserve">  </tspan><tspan class="cls-4" x="8.28" y="24">0</tspan></text><text class="cls-3" transform="translate(154.29 341.66)">1,2<tspan x="0" y="24" xml:space="preserve">  </tspan><tspan class="cls-4" x="8.28" y="24">0</tspan></text><text class="cls-3" transform="translate(86.32 496.14)">1,1<tspan x="0" y="24" xml:space="preserve">  </tspan><tspan class="cls-4" x="8.28" y="24">0</tspan></text><text class="cls-3" transform="translate(239.23 496.14)">2,2<tspan x="0" y="24"> </tspan><tspan class="cls-4" x="4.14" y="24" xml:space="preserve"> 0</tspan></text><text class="cls-3" transform="translate(383.35 496.14)">4,4<tspan x="0" y="24" xml:space="preserve">  </tspan><tspan class="cls-4" x="8.28" y="24">0</tspan></text><text class="cls-3" transform="translate(531.13 496.14)">5,5<tspan x="0" y="24" xml:space="preserve">  </tspan><tspan class="cls-4" x="8.28" y="24">0</tspan></text><circle class="cls-5" cx="568.39" cy="93.89" r="23.39"/><circle class="cls-5" cx="647.88" cy="211.21" r="23.39"/><circle class="cls-5" cx="694.65" cy="341.66" r="23.39"/><circle class="cls-5" cx="694.65" cy="503.84" r="23.39"/><line class="cls-5" x1="568.39" y1="93.89" x2="647.88" y2="211.21"/><line class="cls-5" x1="647.88" y1="211.21" x2="694.65" y2="341.66"/><line class="cls-5" x1="568.39" y1="93.89" x2="239.23" y2="211.21"/><line class="cls-5" x1="647.88" y1="211.21" x2="554.51" y2="347.79"/><line class="cls-5" x1="694.65" y1="341.66" x2="501.87" y2="506.4"/><text class="cls-6" transform="translate(604.93 93.89)">1,6<tspan class="cls-7"><tspan x="0" y="24"> </tspan><tspan class="cls-4" x="4.14" y="24" xml:space="preserve"> 1</tspan></tspan></text><text class="cls-6" transform="translate(681.85 207.04)">4,6<tspan class="cls-7"><tspan x="0" y="24" xml:space="preserve">  </tspan><tspan class="cls-4" x="8.28" y="24">1</tspan></tspan></text><text class="cls-6" transform="translate(727.37 341.66)">4,5<tspan class="cls-7"><tspan x="0" y="24" xml:space="preserve">  </tspan><tspan class="cls-4" x="8.28" y="24">1</tspan></tspan></text><text class="cls-6" transform="translate(730.54 496.14)">4,4<tspan class="cls-7"><tspan x="0" y="24" xml:space="preserve">  </tspan><tspan class="cls-4" x="8.28" y="24">1</tspan></tspan></text><circle class="cls-8" cx="782.77" cy="93.89" r="23.39"/><circle class="cls-8" cx="795.66" cy="211.21" r="23.39"/><circle class="cls-8" cx="803.43" cy="347.79" r="23.39"/><line class="cls-8" x1="782.77" y1="93.89" x2="795.66" y2="211.21"/><line class="cls-8" x1="795.66" y1="211.21" x2="803.43" y2="347.79"/><line class="cls-8" x1="782.77" y1="93.89" x2="647.88" y2="211.21"/><line class="cls-8" x1="795.66" y1="211.21" x2="120.96" y2="347.79"/><text class="cls-9" transform="translate(812.04 93.89)">1,6<tspan class="cls-7"><tspan x="0" y="24" xml:space="preserve">  </tspan><tspan class="cls-4" x="8.28" y="24">2</tspan></tspan></text><text class="cls-9" transform="translate(823.58 207.04)">1,3<tspan class="cls-7"><tspan x="0" y="24" xml:space="preserve">  </tspan><tspan class="cls-4" x="8.28" y="24">1</tspan></tspan></text><text class="cls-9" transform="translate(835.76 341.66)">3,3<tspan class="cls-7"><tspan x="0" y="24" xml:space="preserve">  </tspan><tspan class="cls-4" x="8.28" y="24">1</tspan></tspan></text><line class="cls-5" x1="694.65" y1="341.66" x2="694.65" y2="503.84"/></svg>